<svg width="90" height="70" viewBox="0 0 90 70" fill="none" xmlns="http://www.w3.org/2000/svg">
<g clip-path="url(#clip0_366_16334)">
<path d="M20.2116 69.8403C20.2312 69.8534 20.2575 69.8469 20.2772 69.86C20.4321 69.9462 20.6053 69.9941 20.7825 70C20.8801 69.9998 20.9772 69.9866 21.0712 69.9606L44.845 63.4725L68.6187 69.9606C68.7128 69.9866 68.8099 69.9998 68.9075 70C69.0843 69.9947 69.2571 69.9458 69.4106 69.8578C69.4325 69.8469 69.4566 69.8513 69.4762 69.8381L89.1637 57.8069C89.3671 57.682 89.5242 57.4941 89.611 57.2719C89.6979 57.0496 89.7098 56.805 89.645 56.5753L78.7425 18.2941C78.6979 18.1346 78.6176 17.9874 78.5077 17.8636C78.3978 17.7398 78.2612 17.6426 78.1082 17.5794C77.9552 17.5161 77.7898 17.4885 77.6245 17.4987C77.4593 17.5088 77.2985 17.5564 77.1544 17.6378L66.3 23.7278C66.0623 23.8779 65.8913 24.1136 65.8225 24.3861C65.7536 24.6587 65.7922 24.9473 65.9301 25.1922C66.068 25.4372 66.2948 25.6198 66.5636 25.7023C66.8323 25.7847 67.1225 25.7608 67.3741 25.6353L77.0187 20.2213L87.3153 56.3719L69.7825 67.0884L65.6175 33.7706C65.5815 33.4826 65.4326 33.2206 65.2035 33.0424C64.9744 32.8641 64.6838 32.7842 64.3958 32.8202C64.1077 32.8561 63.8458 33.0051 63.6675 33.2342C63.4893 33.4633 63.4093 33.7538 63.4453 34.0419L67.6169 67.4209L45.9387 61.5037V55.5319C45.9387 55.2418 45.8235 54.9636 45.6184 54.7585C45.4133 54.5534 45.1351 54.4381 44.845 54.4381C44.5549 54.4381 44.2767 54.5534 44.0716 54.7585C43.8665 54.9636 43.7512 55.2418 43.7512 55.5319V61.5037L22.0709 67.4209L26.2425 34.0419C26.2603 33.8993 26.2499 33.7545 26.2117 33.6159C26.1736 33.4773 26.1085 33.3476 26.0203 33.2342C25.932 33.1207 25.8223 33.0258 25.6973 32.9547C25.5724 32.8837 25.4347 32.838 25.292 32.8202C25.1494 32.8024 25.0047 32.8128 24.8661 32.8509C24.7275 32.8891 24.5978 32.9541 24.4843 33.0424C24.3709 33.1306 24.2759 33.2404 24.2049 33.3653C24.1338 33.4903 24.0881 33.628 24.0703 33.7706L19.9075 67.0884L2.37468 56.3741L12.6712 20.2256L22.3159 25.6397C22.5675 25.7651 22.8577 25.7891 23.1264 25.7066C23.3952 25.6242 23.622 25.4416 23.7599 25.1966C23.8978 24.9517 23.9364 24.6631 23.8675 24.3905C23.7987 24.1179 23.6277 23.8823 23.39 23.7322L12.5334 17.64C12.3896 17.5577 12.2289 17.5094 12.0635 17.4988C11.8982 17.4882 11.7326 17.5157 11.5795 17.579C11.4263 17.6424 11.2898 17.74 11.1802 17.8643C11.0707 17.9886 10.9911 18.1364 10.9475 18.2963L0.0449957 56.5775C-0.0209453 56.8072 -0.00955853 57.0521 0.0774021 57.2747C0.164363 57.4972 0.322074 57.685 0.526246 57.8091L20.2116 69.8403Z" fill="#8EAECF"/>
<path d="M44.1034 51.1175C44.3042 51.3029 44.5671 51.4063 44.8404 51.4075C45.1137 51.4088 45.3775 51.3076 45.58 51.1241C46.3084 50.4613 63.4387 34.7419 63.4387 18.5938C63.4387 8.16594 55.2728 0 44.845 0C34.4172 0 26.2512 8.16594 26.2512 18.5938C26.2512 34.4619 43.375 50.4437 44.1034 51.1175ZM44.845 2.1875C54.1965 2.1875 61.2512 9.24 61.2512 18.5938C61.2512 31.9309 48.1415 45.5809 44.8515 48.7966C41.5681 45.5437 28.4387 31.7144 28.4387 18.5938C28.4387 9.24 35.4934 2.1875 44.845 2.1875Z" fill="#8EAECF"/>
<path d="M54.6887 18.5938C54.6887 13.1666 50.2722 8.75 44.845 8.75C39.4178 8.75 35.0012 13.1666 35.0012 18.5938C35.0012 24.0209 39.4178 28.4375 44.845 28.4375C50.2722 28.4375 54.6887 24.0209 54.6887 18.5938ZM44.845 26.25C40.6231 26.25 37.1887 22.8156 37.1887 18.5938C37.1887 14.3719 40.6231 10.9375 44.845 10.9375C49.0668 10.9375 52.5012 14.3719 52.5012 18.5938C52.5012 22.8156 49.0668 26.25 44.845 26.25Z" fill="#8EAECF"/>
</g>
<defs>
<clipPath id="clip0_366_16334">
<rect width="89.69" height="70" fill="white"/>
</clipPath>
</defs>
</svg>
